HIERARCHY
ROOT Hips
{
	OFFSET -3.958830 18.904000 13.208200
	CHANNELS 6 Xposition Yposition Zposition Zrotation Yrotation Xrotation 
	JOINT LHipJoint
	{
		OFFSET 0.000000 0.000000 0.000000
		CHANNELS 3 Zrotation Yrotation Xrotation
		JOINT LeftUpLeg
		{
			OFFSET 1.800000 -1.400000 0.085000
			CHANNELS 3 Zrotation Yrotation Xrotation
			JOINT LeftLeg
			{
				OFFSET 2.215000 -6.000000 0.000000
				CHANNELS 3 Zrotation Yrotation Xrotation
				JOINT LeftFoot
				{
					OFFSET 2.500000 -6.900000 0.000000
					CHANNELS 3 Zrotation Yrotation Xrotation
					JOINT LeftToeBase
					{
						OFFSET 0.200000 -0.500000 1.950000
						CHANNELS 3 Zrotation Yrotation Xrotation
						End Site
						{
							OFFSET 0.000000 0.000000 0.000000
						}
					}
				}
			}
		}
	}
	JOINT RHipJoint
	{
		OFFSET 0.000000 0.000000 0.000000
		CHANNELS 3 Zrotation Yrotation Xrotation
		JOINT RightUpLeg
		{
			OFFSET -1.800000 -1.400000 0.085000
			CHANNELS 3 Zrotation Yrotation Xrotation
			JOINT RightLeg
			{
				OFFSET -2.215000 -6.000000 0.000000
				CHANNELS 3 Zrotation Yrotation Xrotation
				JOINT RightFoot
				{
					OFFSET -2.500000 -6.900000 0.000000
					CHANNELS 3 Zrotation Yrotation Xrotation
					JOINT RightToeBase
					{
						OFFSET -0.200000 -0.500000 1.950000
						CHANNELS 3 Zrotation Yrotation Xrotation
						End Site
						{
							OFFSET 0.000000 0.000000 0.000000
						}
					}
				}
			}
		}
	}
	JOINT LowerBack
	{
		OFFSET 0.000000 0.000000 0.000000
		CHANNELS 3 Zrotation Yrotation Xrotation
		JOINT Spine
		{
			OFFSET -0.087000 1.940000 -0.288900
			CHANNELS 3 Zrotation Yrotation Xrotation
			JOINT Spine1
			{
				OFFSET 0.000000 1.950000 0.060000
				CHANNELS 3 Zrotation Yrotation Xrotation
				JOINT Neck
				{
					OFFSET 0.000000 0.000000 0.000000
					CHANNELS 3 Zrotation Yrotation Xrotation
					JOINT Neck1
					{
						OFFSET 0.000000 1.600000 0.340000
						CHANNELS 3 Zrotation Yrotation Xrotation
						JOINT Head
						{
							OFFSET 0.000000 1.667000 -0.240000
							CHANNELS 3 Zrotation Yrotation Xrotation
							End Site
							{
								OFFSET 0.000000 0.000000 0.000000
							}
						}
					}
				}
				JOINT LeftShoulder
				{
					OFFSET 0.000000 0.000000 0.000000
					CHANNELS 3 Zrotation Yrotation Xrotation
					JOINT LeftArm
					{
						OFFSET 2.700000 1.550000 -0.730000
						CHANNELS 3 Zrotation Yrotation Xrotation
						JOINT LeftForeArm
						{
							OFFSET 5.450000 0.000000 0.000000
							CHANNELS 3 Zrotation Yrotation Xrotation
							JOINT LeftHand
							{
								OFFSET 3.450000 0.000000 0.000000
								CHANNELS 3 Zrotation Yrotation Xrotation
								JOINT LeftHandIndex1
								{
									OFFSET 0.750000 0.000000 0.000000
									CHANNELS 3 Zrotation Yrotation Xrotation
									End Site
									{
										OFFSET 0.000000 0.000000 0.000000
									}
								}
							}
						}
					}
				}
				JOINT RightShoulder
				{
					OFFSET 0.000000 0.000000 0.000000
					CHANNELS 3 Zrotation Yrotation Xrotation
					JOINT RightArm
					{
						OFFSET -2.700000 1.550000 -0.730000
						CHANNELS 3 Zrotation Yrotation Xrotation
						JOINT RightForeArm
						{
							OFFSET -5.450000 0.000000 0.000000
							CHANNELS 3 Zrotation Yrotation Xrotation
							JOINT RightHand
							{
								OFFSET -3.450000 0.000000 0.000000
								CHANNELS 3 Zrotation Yrotation Xrotation
								JOINT RightHandIndex1
								{
									OFFSET -0.750000 0.000000 0.000000
									CHANNELS 3 Zrotation Yrotation Xrotation
									End Site
									{
										OFFSET 0.000000 0.000000 0.000000
									}
								}
							}
						}
					}
				}
			}
		}
	}
}
MOTION
Frames: 8
Frame Time: 0.016667
-12.027480 17.305780 -0.991890 -19.407307 12.810173 -12.726728 -15.773919 12.804280 3.915638 28.463373 0.802020 2.971532 -6.948496 5.416355 -5.029886 0.489670 6.259926 2.422475 0.592770 0.165630 0.706350 17.819563 -7.235554 5.134485 -44.580227 6.290057 -23.657391 65.025716 -42.338594 38.934811 -2.565904 -11.409364 0.660124 -0.077070 -0.513690 0.012290 -2.093468 -6.019585 -10.216648 32.137009 -6.285186 27.785656 -4.989637 2.105781 -0.741404 3.317005 7.445823 -25.593299 14.208963 -22.265315 47.453750 0.439910 -18.999280 -20.540980 -19.727911 -28.319904 15.200143 8.298635 16.662561 2.143023 5.545633 1.436921 -0.446655 -3.323011 2.559918 0.822180 -0.514160 0.334370 0.031850 8.747525 32.015593 11.948856 25.270760 19.746884 -8.946315 1.492588 47.707014 -0.250465 2.022837 -1.415345 0.010560 -0.001470 -0.286190 -0.305150 
-11.895310 17.349430 -1.022510 -20.498943 13.095800 -13.828544 -15.807416 12.821605 3.928488 28.832045 0.714303 3.382555 -6.811253 5.478175 -4.980407 0.427091 6.405182 2.372095 0.565960 0.110140 0.722710 17.801090 -7.137911 5.143330 -45.476819 5.324258 -24.114090 77.805418 -46.799766 34.458398 -2.625813 -11.128099 0.762245 -0.077380 -0.499890 0.012550 -2.009156 -6.251807 -10.200109 33.032953 -6.825639 28.753120 -5.225191 1.420323 0.389097 3.790044 7.731064 -25.721549 14.763957 -22.469881 46.216633 0.056860 -18.504030 -22.102690 -19.373478 -28.887326 15.625088 7.320996 17.896625 2.266064 5.653515 -1.486391 -0.393271 -3.258469 2.604045 0.876120 -0.509150 0.326950 -0.001540 7.209045 32.610647 11.691520 25.334014 20.884960 -9.577845 1.765937 48.145339 -0.369769 1.967325 -1.372885 -0.046360 0.034720 -0.241620 -0.347470 
-11.768130 17.372250 -1.038440 -21.317203 12.866972 -13.787264 -15.780607 12.706134 3.918758 28.871247 0.487365 3.491190 -6.749748 5.404006 -5.223363 0.390930 6.434891 2.384856 0.575950 0.112610 0.756290 17.837985 -7.231109 5.100223 -45.637659 3.981018 -25.650394 92.054188 -49.662952 28.044564 -2.657627 -10.827267 0.893789 -0.051350 -0.477510 0.007790 -2.089745 -5.946382 -10.165484 33.418411 -6.955299 28.727668 -4.851004 0.686576 1.370184 3.759934 8.264333 -25.480137 16.309511 -22.386914 42.594338 -1.084670 -17.060700 -21.664490 -18.902708 -29.210633 16.264940 6.384925 20.454148 2.475736 5.710889 -2.900154 -0.338431 -3.217616 2.668117 0.882600 -0.478060 0.315550 0.009560 6.371183 32.508348 11.084348 25.246328 22.455362 -9.796947 2.130626 48.758631 -0.469340 1.928392 -1.397125 -0.086730 0.057370 -0.257770 -0.370610 
-11.634910 17.407630 -1.057820 -21.924691 11.982646 -13.407503 -15.794337 12.683387 3.895198 28.988319 0.464920 3.385050 -7.347716 5.554048 -4.781589 0.392701 6.498400 2.355227 0.561240 0.099850 0.745210 17.828703 -7.148115 5.155400 -44.444231 3.044438 -27.076019 106.980017 -47.910642 19.352489 -2.707806 -10.711440 0.973671 -0.055780 -0.460620 0.032530 -2.052110 -5.958615 -10.199511 33.830243 -7.006751 28.954902 -4.767700 0.846696 1.415151 3.879885 8.469611 -25.646149 16.951089 -22.461209 40.528132 -2.681610 -16.487790 -20.130240 -19.376138 -29.182142 16.568590 6.032777 22.422009 2.762446 6.133520 -2.405201 -0.330978 -3.269030 2.708094 0.847360 -0.435970 0.295540 0.002050 6.349551 32.791941 11.013525 24.925708 22.675070 -10.239295 2.779426 49.632140 -0.342186 1.887544 -1.449614 -0.076680 0.035710 -0.240560 -0.371860 
-11.490040 17.438520 -1.058200 -22.384989 11.442734 -13.114809 -15.822383 12.599489 3.836777 28.964929 0.452176 3.686772 -7.740958 5.638052 -4.838591 0.407354 6.569155 2.319589 0.515630 0.052040 0.711160 17.833012 -6.772301 5.485176 -43.507946 2.360329 -27.681617 119.724468 -43.093424 11.480874 -2.736107 -10.544951 1.050314 -0.083600 -0.454310 0.032830 -1.995126 -6.223143 -10.345680 34.448366 -7.330006 28.985542 -4.938813 1.217586 0.408578 3.900135 8.162950 -25.667699 16.232263 -22.370602 41.489742 -2.831220 -16.794100 -19.366070 -19.623791 -28.628187 16.600146 5.086138 22.433090 2.767668 6.477545 0.778651 -0.424029 -3.373890 2.622635 0.838740 -0.430780 0.278110 -0.026970 6.598543 32.691805 10.933865 25.445566 22.707154 -9.678701 3.973224 49.693249 0.269737 1.906471 -1.429086 -0.078800 0.024420 -0.199880 -0.371690 
-11.346910 17.450110 -1.075560 -22.662013 12.186338 -13.225299 -15.834985 12.544139 3.791396 28.806243 0.341751 3.584343 -8.272510 5.695514 -4.655320 0.413916 6.567444 2.333414 0.532720 0.082440 0.721870 17.842493 -6.587531 5.668960 -43.487781 1.347889 -27.889964 126.057350 -41.473394 8.038055 -2.756578 -10.408962 1.133089 -0.067850 -0.450130 0.018430 -1.969330 -6.364420 -10.413110 34.627397 -7.505548 28.590184 -4.646998 0.930398 0.102190 4.049486 8.175545 -25.404661 15.964480 -22.741794 41.499064 -3.516110 -17.060280 -19.598540 -20.075503 -28.612421 16.443961 5.320858 21.515029 2.767583 5.351945 1.232433 -0.526039 -3.350592 2.585054 0.830460 -0.429470 0.283830 -0.007510 6.807325 32.578022 10.713188 25.354610 22.583207 -9.472471 3.975061 49.755800 0.312979 1.915771 -1.415867 -0.079270 0.052020 -0.222120 -0.362510 
-11.191470 17.464610 -1.095830 -22.476235 12.551160 -13.600555 -15.819633 12.542562 3.744970 28.149550 0.344031 4.123503 -8.956773 5.756822 -4.523215 0.412916 6.582473 2.333375 0.536210 0.070790 0.724470 17.861931 -6.566807 5.742086 -43.667743 1.300609 -27.613248 126.358153 -40.776620 7.820026 -2.736899 -10.338570 1.138509 -0.068500 -0.454340 0.019610 -2.012695 -6.355827 -10.406315 34.908085 -7.867955 28.534611 -5.209117 0.716127 0.407395 3.982997 8.108717 -25.631906 15.748433 -22.704286 41.967858 -3.015820 -17.425630 -19.261800 -20.300893 -28.863266 16.610676 5.666140 20.731048 2.780929 4.833727 4.797564 -0.742135 -3.427914 2.488196 0.839670 -0.438990 0.279270 -0.007660 7.073918 32.725947 11.013960 25.639633 22.006569 -10.199294 3.754563 50.743987 -0.016338 1.904268 -1.446888 -0.084470 0.040960 -0.222780 -0.366200 
-11.021920 17.473260 -1.133950 -22.576094 12.477762 -13.723861 -15.787339 12.587104 3.692144 27.422676 0.320840 4.274140 -9.544862 5.849792 -4.050388 0.388964 6.542917 2.342609 0.558150 0.081270 0.748650 17.881579 -6.692471 5.671541 -43.094625 1.660894 -28.348591 123.285125 -41.718239 9.573348 -2.751742 -10.463153 1.077735 -0.058320 -0.472120 0.029930 -2.097179 -6.236700 -10.308641 35.902120 -8.369269 28.521175 -5.943542 0.457445 0.772200 4.089069 8.337852 -25.433903 16.011234 -22.597193 40.694693 -3.049220 -17.041810 -19.556550 -20.684733 -29.198480 16.762690 6.087129 20.630223 2.846304 4.287289 5.613131 -0.858527 -3.410047 2.514356 0.846080 -0.444940 0.281220 -0.009010 7.083964 32.771907 10.864793 25.518896 22.283503 -10.510122 2.563682 50.803732 -0.563510 1.897448 -1.469504 -0.081540 0.015490 -0.235670 -0.378600 
